<?xml version="1.0" encoding="UTF-8"?>
<svg xmlns="http://www.w3.org/2000/svg" width="343" height="402" viewBox="0 0 343 402" role="img" aria-label="Rookery"><title>Rookery</title><path fill="#F2F0EA" fill-rule="evenodd" transform="translate(0 0) scale(1)" d="M -0 107.667 C -0 166.883, 0.183 215.146, 0.408 214.917 C 0.632 214.687, 4.951 208.675, 10.006 201.556 C 47.713 148.451, 83.073 120.018, 123.865 109.999 C 134.255 107.448, 149.740 105.815, 160 106.190 L 168.500 106.500 168.410 128 C 168.190 180.233, 151.409 237.440, 122.087 285.910 C 119.289 290.535, 117 294.503, 117 294.727 C 117 294.951, 127.497 310.066, 140.326 328.317 C 153.155 346.568, 169.918 370.587, 177.576 381.693 L 191.500 401.886 245.750 401.943 C 275.587 401.974, 300 401.798, 300 401.550 C 300 401.303, 294.686 393.765, 288.190 384.800 C 244.394 324.349, 198.861 260.813, 199.153 260.557 C 199.344 260.391, 201.075 259.457, 203 258.483 C 214.405 252.709, 230.597 238.575, 238.491 227.500 C 257.200 201.255, 262.439 167.242, 252.415 137.104 C 250.514 131.387, 249.092 126.574, 249.257 126.410 C 250.103 125.563, 332.248 118, 340.597 118 L 343 118 L 340.911 113.001 C 337.043 104.454, 325.591 88.562, 317.392 80.363 C 299.865 62.836, 277.655 49.574, 254.419 42.761 C 246.888 40.553, 246.132 40.055, 239 32.610 C 222.105 14.975, 199.859 4.329, 173.026 1.039 C 167.793 0.397, 133.085 0, 82.276 0 L 0 0 -0 107.667 Z M 177.467 49.800 C 178.779 55.177, 182.852 62.831, 186.635 67.027 C 200.734 82.665, 224.886 76.648, 226.771 57.027 C 227.227 52.289, 227.212 52.263, 223.864 51.666 C 219.763 50.934, 194.257 48.336, 184.154 47.621 L 176.808 47.100 177.467 49.800 Z M 111.496 205.208 C 99.269 219.832, 67.009 242.579, 39.500 255.973 C 28.794 261.186, 3.660 271, 1.016 271 C 0.338 271, -0 292.847, -0 336.611 L -0 402 3.750 401.562 C 46.494 394.036, 86.911 342.464, 104.494 273.013 C 109.445 253.456, 116.560 204.226, 114.703 202.370 C 114.453 202.120, 113.010 203.397, 111.496 205.208 Z"/></svg>
